<?xml version="1.0" encoding="UTF-8" standalone="no"?>
<!-- Created with Inkscape (http://www.inkscape.org/) -->

<svg
   width="627.97974mm"
   height="105.41983mm"
   viewBox="0 0 627.97973 105.41983"
   version="1.1"
   id="svg1006"
   inkscape:version="1.2.2 (732a01da63, 2022-12-09)"
   sodipodi:docname="tk_top_section_clouds.svg"
   xmlns:inkscape="http://www.inkscape.org/namespaces/inkscape"
   xmlns:sodipodi="http://sodipodi.sourceforge.net/DTD/sodipodi-0.dtd"
   xmlns="http://www.w3.org/2000/svg"
   xmlns:svg="http://www.w3.org/2000/svg">
  <sodipodi:namedview
     id="namedview1008"
     pagecolor="#ffffff"
     bordercolor="#666666"
     borderopacity="1.0"
     inkscape:showpageshadow="2"
     inkscape:pageopacity="0.0"
     inkscape:pagecheckerboard="0"
     inkscape:deskcolor="#d1d1d1"
     inkscape:document-units="mm"
     showgrid="false"
     inkscape:zoom="0.2102413"
     inkscape:cx="877.56307"
     inkscape:cy="1645.728"
     inkscape:window-width="2560"
     inkscape:window-height="1494"
     inkscape:window-x="-11"
     inkscape:window-y="-11"
     inkscape:window-maximized="1"
     inkscape:current-layer="layer1" />
  <defs
     id="defs1003" />
  <g
     inkscape:label="Layer 1"
     inkscape:groupmode="layer"
     id="layer1"
     transform="translate(821.2402,286.27032)">
    <path
       id="path776"
       style="fill:#e6a827;stroke-width:0.264583"
       d="m -379.61496,-286.26525 c -3.02171,-0.0297 -6.01029,0.0706 -7.70496,0.31419 -7.28601,1.04724 -13.55459,2.96881 -19.63498,6.01824 -5.59805,2.80753 -7.423,4.18691 -14.60996,11.04378 -5.00667,4.77673 -8.12361,8.20916 -8.97464,9.8826 l -0.56896,1.11827 -2.64583,-1.73632 c -2.9071,-1.90791 -5.11382,-3.07455 -7.9375,-4.19561 -12.35894,-4.90676 -26.28947,-4.54781 -37.24321,0.95963 -5.90901,2.97098 -10.74278,7.19386 -18.05781,15.77423 -1.27164,1.49158 -2.33974,2.71198 -2.3735,2.71198 -0.0338,0 -0.51207,-0.73058 -1.06298,-1.62316 -3.02022,-4.8931 -8.94798,-9.00423 -16.72611,-11.60084 -3.94118,-1.31568 -7.05047,-1.85725 -10.66344,-1.85725 -5.15238,0 -9.11098,1.10856 -13.76143,3.85403 -2.31956,1.41611 -3.45617,2.21371 -4.48965,3.17965 -2.58444,1.80898 -3.84953,3.3605 -5.79448,3.8964 -1.97624,0.54453 -4.90025,-0.19634 -6.50606,-0.44028 -11.39792,-1.71501 -20.76469,-0.47936 -30.55731,4.38319 -2.25306,0.6803 -4.07422,3.42652 -5.04827,1.06815 -0.0886,-0.27285 -0.9755,-2.30187 -1.77405,-3.9026 -5.89359,-11.81401 -16.00624,-19.62306 -27.60917,-21.31963 -3.51981,-0.51467 -10.34872,-0.17427 -13.59503,0.67748 -5.79502,1.52048 -8.51384,2.89836 -17.4625,8.84959 -3.20146,2.1291 -6.21242,4.03271 -6.69107,4.23023 -1.09612,0.45233 -0.88014,0.74226 -4.19767,-5.64307 -4.53482,-8.72824 -7.0135,-11.84763 -13.08758,-16.47238 -5.8059,-4.42057 -12.4186,-7.25017 -20.07681,-8.59069 -3.0257,-0.52963 -11.71759,-0.45563 -14.68437,0.12506 -13.70112,2.6817 -25.66578,10.64581 -32.78457,21.82244 -1.4681,2.30497 -2.4448,2.88228 -4.11551,2.43241 -1.09458,-0.29474 -2.52355,-1.58419 -5.53506,-4.99608 -3.47433,-3.93623 -8.41786,-6.35888 -13.87047,-6.797 -4.188,-0.3365 -9.32962,0.73995 -13.47101,2.8205 -3.8373,1.92778 -8.90952,6.15312 -10.55388,8.7912 -1.26497,2.02941 -2.84896,3.58883 -3.83284,3.77341 -1.24473,0.23351 -3.39799,-0.29576 -6.77065,-1.6645 -2.95497,-1.19924 -3.03353,-1.21537 -6.1681,-1.24178 -3.92321,-0.033 -6.17507,0.491 -8.97878,2.08876 l -1.89394,1.07952 -0.1111,74.54687 627.44284,2.05414 0.53691,-71.63129 -0.78806,-1.94665 c -0.50099,-1.23693 -0.9142,-2.42754 -0.91777,-2.64583 -0.0114,-0.7013 -2.0068,-3.57624 -3.80494,-5.48235 -3.95591,-4.19347 -10.84599,-7.66844 -18.32136,-9.24027 -3.01221,-0.63336 -4.00607,-0.718 -8.56692,-0.73019 -6.03797,-0.0161 -9.56933,0.50023 -15.34894,2.24431 -8.13563,2.45505 -14.98898,6.15877 -21.05918,11.3807 -2.56428,2.20596 -6.37913,6.24912 -8.04188,8.52351 -0.90188,1.23365 -1.94623,2.53101 -1.49345,1.85519 0.15505,-0.23141 -0.43491,-1.0674 -1.87585,-2.65824 -2.34968,-2.59408 -5.69777,-6.90234 -7.59851,-9.77718 -0.69083,-1.04486 -1.39279,-1.85142 -1.56011,-1.79266 -0.1673,0.0588 -0.71944,-0.45569 -1.22731,-1.14308 -5.56437,-7.53119 -15.15672,-12.97091 -24.82485,-14.07873 -7.21549,-0.82677 -13.42253,0.33039 -20.5543,3.83285 -4.50327,2.21159 -7.32128,4.27409 -8.48992,6.21305 l -0.76119,1.26298 -4.47828,-4.34754 c -5.69243,-5.52613 -8.74631,-7.83534 -13.2271,-10.00146 -5.1108,-2.47069 -9.79091,-3.91443 -15.50913,-4.78421 -1.82892,-0.27819 -4.88376,-0.43799 -7.90546,-0.46767 z" />
  </g>
</svg>
