<?xml version="1.0" encoding="UTF-8" standalone="no"?>
<!-- Created with Inkscape (http://www.inkscape.org/) -->

<svg
   width="628.12085mm"
   height="97.739044mm"
   viewBox="0 0 628.12085 97.739043"
   version="1.1"
   id="svg5"
   xml:space="preserve"
   inkscape:version="1.2.2 (732a01da63, 2022-12-09)"
   sodipodi:docname="tk_lower_section_clouds.svg"
   xmlns:inkscape="http://www.inkscape.org/namespaces/inkscape"
   xmlns:sodipodi="http://sodipodi.sourceforge.net/DTD/sodipodi-0.dtd"
   xmlns="http://www.w3.org/2000/svg"
   xmlns:svg="http://www.w3.org/2000/svg"><sodipodi:namedview
     id="namedview7"
     pagecolor="#ffffff"
     bordercolor="#666666"
     borderopacity="1.0"
     inkscape:showpageshadow="2"
     inkscape:pageopacity="0.0"
     inkscape:pagecheckerboard="0"
     inkscape:deskcolor="#d1d1d1"
     inkscape:document-units="mm"
     showgrid="false"
     inkscape:zoom="0.4204826"
     inkscape:cx="995.28493"
     inkscape:cy="-753.89564"
     inkscape:window-width="2560"
     inkscape:window-height="1494"
     inkscape:window-x="-11"
     inkscape:window-y="-11"
     inkscape:window-maximized="1"
     inkscape:current-layer="layer1" /><defs
     id="defs2" /><g
     inkscape:label="Layer 1"
     inkscape:groupmode="layer"
     id="layer1"
     transform="translate(244.84433,-161.99129)"><path
       style="fill:#fae4ce;stroke-width:0.264583"
       d="m -244.84433,235.506 v -24.22434 l 0.82471,0.47798 c 0.45359,0.26289 1.65109,1.38953 2.66109,2.50365 2.80928,3.09885 3.2425,3.05121 7.06525,-0.77689 3.28798,-3.29258 5.37909,-4.86856 8.36666,-6.30563 7.72884,-3.71769 16.94651,-3.98667 25.13354,-0.73343 7.20231,2.86194 12.58544,7.89457 17.79698,16.6382 0.9541,1.60073 2.14233,3.80338 2.64052,4.89479 1.65015,3.61503 1.70335,3.70417 2.21113,3.70417 0.27156,0 1.25986,-0.69429 2.19623,-1.54286 1.96212,-1.77816 4.46912,-3.17008 7.30389,-4.05523 1.67786,-0.52391 2.53611,-0.6183 5.55625,-0.61109 3.34654,0.008 3.70762,0.0603 5.7236,0.83006 2.73417,1.04392 5.0059,2.3743 8.82849,5.17017 3.58782,2.62416 3.50014,2.56862 4.51565,2.85987 0.74983,0.21505 0.98981,0.0565 4.29086,-2.83466 4.55367,-3.98826 6.19417,-5.19124 8.77713,-6.43628 3.90113,-1.88044 5.71018,-2.24637 10.99136,-2.2233 4.25863,0.0186 4.8213,0.0784 7.01146,0.74509 4.62026,1.40641 9.04841,4.26276 11.73423,7.56906 2.11892,2.60843 2.796076,2.30069 6.883892,-3.12852 8.092363,-10.74781 14.489941,-15.12773 22.096495,-15.12773 4.145462,0 7.570359,1.13808 11.498773,3.821 4.05361,2.76842 5.088205,2.72136 7.416589,-0.33733 3.809502,-5.00437 8.821065,-8.32905 14.056476,-9.3251 0.945886,-0.17995 2.969948,-0.32066 4.497917,-0.31267 3.302119,0.0172 5.844233,0.61658 9.113409,2.14857 l 2.216367,1.03862 1.326476,-2.1707 c 3.075098,-5.03221 6.719094,-9.35308 10.970495,-13.00827 3.8562392,-3.31544 7.6368494,-5.8247 11.93255039,-7.91984 7.54100881,-3.67797 14.06333961,-5.22115 22.11987061,-5.23353 16.679758,-0.0256 33.033839,7.91104 42.708302,20.72647 2.457662,3.25557 4.488524,6.55142 6.454167,10.47434 1.577975,3.14919 4.090485,9.25245 4.954614,12.03541 l 0.461381,1.48592 4.272888,-2.15708 c 8.640366,-4.36191 15.602797,-5.83541 23.176418,-4.90495 6.02882,0.74068 11.12266,2.98625 14.89366,6.56575 0.90474,0.85879 2.67777,3.14161 4.17325,5.37314 1.43009,2.13398 2.86969,4.06874 3.19913,4.29948 1.0701,0.74954 1.92661,0.53224 3.17473,-0.80543 3.40617,-3.65062 5.38866,-4.90694 9.33654,-5.91663 2.27206,-0.5811 5.55151,-0.69576 7.78497,-0.2722 2.93851,0.55728 6.95438,2.62603 8.42748,4.34136 0.87598,1.02005 1.63364,0.88171 2.99191,-0.54631 2.56315,-2.69479 5.97466,-4.26592 9.77598,-4.50223 4.19558,-0.26081 6.58485,0.55938 11.60664,3.98432 1.62134,1.10578 3.25538,2.08768 3.63117,2.182 1.04854,0.26316 1.90087,-0.56192 3.40137,-3.29267 2.48449,-4.52142 5.56689,-8.11095 9.53895,-11.10829 3.81608,-2.87967 9.64774,-5.23157 14.61008,-5.89226 6.19363,-0.82462 13.81686,1.10699 19.8688,5.03447 1.70926,1.10925 2.16591,1.16567 2.16591,0.26761 0,-1.49086 2.79225,-9.03948 4.40367,-11.90492 4.21055,-7.48729 10.7178,-13.4525 17.6906,-16.21707 8.66254,-3.4345 17.75997,-4.82306 24.4724,-3.73526 6.31322,1.0231 15.56234,5.43949 18.12938,8.65666 l 0.72366,0.90695 1.75863,-3.46519 c 0.96724,-1.90585 2.46248,-4.53674 3.32275,-5.84643 8.61494,-13.11533 22.18367,-21.9173 38.21687,-24.79107 2.73838,-0.49083 4.25365,-0.59496 8.49246,-0.58363 4.56086,0.0122 5.55466,0.0969 8.56686,0.73027 7.47538,1.57183 14.3655,5.04682 18.32142,9.24029 1.77292,1.87939 3.7963,4.78269 3.80087,5.4538 0.003,0.20262 0.41924,1.42222 0.92856,2.71021 l 0.92604,2.3418 v 38.63094 38.63093 H 69.216095 -244.84433 Z"
       id="path1163" /></g></svg>
